PathFileType	4	(X/Y/Z)	E:\Studenten\Marcel_BSc\Simon_27_12_2024\27-12-2024\static_00.trc
DataRate	CameraRate	NumFrames	NumMarkers	Units	OrigDataRate	OrigDataStartFrame	OrigNumFrames
200.0	200.0	4	63	mm	200.0	296	175	
Frame#	Time	FHD			LBHD			RBHD			RBAR			LBAR			RASI			RSACR			LSACR			LASI			USACR			C7			CLAV			T10			RSHO			LSHO			LTHI1			LTHI3			LTHI2			LTHI4			LLFC			LMFC			LTIB1			LTIB2			LTIB3			LTIB4			LMMAL			LLMAL			LHEE			LMT1			LMT5			LMT3			RTHI1			RTHI3			RTHI2			RTHI4			RLFC			RMFC			RTIB1			RTIB3			RTIB2			RTIB4			RLMAL			RMMAL			RHEE			RMT5			RMT1			RMT3			LMEP			LLEP			LDUPA			LMUPA			LUUPA			LUL			LRAD			LRFIN			RUL			RRAD			RUFIN			RMEP			RDUPA			RUUPA			RLEP			RMUPA			
		X1	Y1	Z1	X2	Y2	Z2	X3	Y3	Z3	X4	Y4	Z4	X5	Y5	Z5	X6	Y6	Z6	X7	Y7	Z7	X8	Y8	Z8	X9	Y9	Z9	X10	Y10	Z10	X11	Y11	Z11	X12	Y12	Z12	X13	Y13	Z13	X14	Y14	Z14	X15	Y15	Z15	X16	Y16	Z16	X17	Y17	Z17	X18	Y18	Z18	X19	Y19	Z19	X20	Y20	Z20	X21	Y21	Z21	X22	Y22	Z22	X23	Y23	Z23	X24	Y24	Z24	X25	Y25	Z25	X26	Y26	Z26	X27	Y27	Z27	X28	Y28	Z28	X29	Y29	Z29	X30	Y30	Z30	X31	Y31	Z31	X32	Y32	Z32	X33	Y33	Z33	X34	Y34	Z34	X35	Y35	Z35	X36	Y36	Z36	X37	Y37	Z37	X38	Y38	Z38	X39	Y39	Z39	X40	Y40	Z40	X41	Y41	Z41	X42	Y42	Z42	X43	Y43	Z43	X44	Y44	Z44	X45	Y45	Z45	X46	Y46	Z46	X47	Y47	Z47	X48	Y48	Z48	X49	Y49	Z49	X50	Y50	Z50	X51	Y51	Z51	X52	Y52	Z52	X53	Y53	Z53	X54	Y54	Z54	X55	Y55	Z55	X56	Y56	Z56	X57	Y57	Z57	X58	Y58	Z58	X59	Y59	Z59	X60	Y60	Z60	X61	Y61	Z61	X62	Y62	Z62	X63	Y63	Z63	
296	1.475	116.86304	1729.2594	-931.0918	286.05664	1696.2549	-852.78497	242.1573	1725.1045	-1005.9506	2013.7744	28.047562	-2007.8395	1903.3965	23.756933	212.67032	156.20235	969.80701	-1062.8483	345.73306	977.22345	-958.87128	343.31036	973.12335	-916.58405	151.19023	973.91357	-813.63007	336.28375	985.75311	-933.72064	318.95892	1480.6831	-924.40985	162.66872	1432.1097	-925.00708	330.98703	1169.2504	-934.802	298.71851	1467.3773	-1085.9283	285.11484	1460.9816	-763.95477	220.302	813.34131	-733.03992	187.67456	790.55725	-733.09406	235.0022	774.41187	-724.53467	189.76144	726.19696	-724.71863	260.21527	499.31924	-743.52094	235.45157	469.53979	-847.81573	319.16656	416.57126	-731.28125	295.40353	378.1265	-714.94	342.60925	366.69907	-728.02588	308.64685	313.64212	-710.73193	251.76743	96.753761	-822.21033	282.04852	76.736732	-736.76587	331.19781	35.510357	-786.24738	111.26058	41.011452	-775.09271	155.16109	29.491188	-703.83533	128.78505	33.585842	-724.59369	207.36253	817.26495	-1143.8359	160.89702	781.54578	-1130.8201	207.99254	784.79187	-1149.361	187.27327	721.66638	-1146.4657	255.28482	500.65369	-1124.7314	241.79439	482.90814	-1003.2736	306.08875	433.05432	-1136.9844	339.33029	382.97803	-1142.7274	289.15613	385.6008	-1154.5192	312.01028	323.81915	-1155.6715	287.95523	82.870247	-1132.2493	248.73367	100.31432	-1049.7373	328.3779	33.21674	-1073.7113	172.49139	28.881029	-1181.8781	119.22717	45.823334	-1119.1716	130.74588	35.024818	-1159.8798	212.83455	1296.101	-503.88174	272.27805	1394.1152	-489.56345	304.74429	1387.8232	-564.11664	323.29675	1380.645	-623.1178	297.21313	1421.4198	-635.48218	226.74702	1363.1417	-232.73398	168.14696	1340.6793	-247.51047	157.7737	1350.4645	-152.90227	247.37576	1396.7866	-1607.9766	197.1694	1401.6376	-1592.8202	181.8699	1401.6545	-1697.9232	232.0697	1300.1351	-1357.9905	285.78983	1432.0439	-1284.2935	314.53027	1425.3727	-1209.9565	283.64828	1402.2085	-1363.2806	320.76187	1400.2819	-1266.9045
297	1.48	116.86157	1729.2628	-931.06903	286.0643	1696.2441	-852.76178	242.16533	1725.0923	-1005.9352	2013.7794	28.028353	-2007.875	1903.4585	23.640331	212.50227	156.19991	969.81439	-1062.8643	345.72519	977.22485	-958.9126	343.30359	973.12109	-916.61072	151.18623	973.91119	-813.63831	336.28317	985.74823	-933.73828	318.95724	1480.6866	-924.40393	162.6617	1432.1039	-925.00934	330.99786	1169.2579	-934.80566	298.71854	1467.3978	-1085.9103	285.09964	1460.9525	-763.94293	220.29332	813.34058	-733.06476	187.64154	790.58673	-733.11566	234.97664	774.42352	-724.53973	189.76643	726.19269	-724.73999	260.20081	499.32831	-743.53174	235.43985	469.54047	-847.83112	319.15341	416.5784	-731.28845	295.41388	378.12628	-714.94989	342.59262	366.6503	-728.08978	308.62015	313.9523	-710.02484	251.73601	96.983345	-822.61963	282.04547	76.726898	-736.77148	331.19977	35.511562	-786.2381	111.25066	41.016712	-775.09491	155.1545	29.478405	-703.84033	128.7791	33.587589	-724.59863	207.35583	817.26764	-1143.849	160.87616	781.55103	-1130.8395	207.96837	784.82098	-1149.3894	187.2659	721.6604	-1146.4929	255.27153	500.66489	-1124.7506	241.78896	482.91022	-1003.2866	306.07779	433.04626	-1137.0022	339.32159	382.97656	-1142.7428	289.15009	385.59586	-1154.5171	311.99905	323.83011	-1155.6876	287.94998	82.864273	-1132.2476	248.71562	100.32525	-1049.7313	328.38315	33.227043	-1073.7128	172.49341	28.881544	-1181.8599	119.22816	45.823792	-1119.1841	130.74144	35.036304	-1159.8895	213.91895	1295.8412	-503.02707	272.29187	1394.0858	-489.55624	304.76443	1387.7739	-564.12726	323.31705	1380.6191	-623.11682	297.23474	1421.3829	-635.48145	226.75745	1363.1177	-232.73648	168.16104	1340.6519	-247.51021	157.69113	1350.5193	-153.19336	247.4828	1396.9	-1607.981	197.26276	1401.7483	-1592.8259	181.98915	1401.7882	-1697.9275	232.12375	1300.163	-1358.0302	285.79364	1432.0901	-1284.2778	314.53052	1425.4222	-1209.9456	283.86768	1402.4005	-1363.3173	320.76471	1400.3379	-1266.8943
298	1.485	116.85955	1729.2645	-931.06085	286.06152	1696.234	-852.74982	242.15689	1725.0885	-1005.9242	2013.7312	28.078119	-2007.9231	1903.3726	23.763939	212.69067	156.1945	969.82019	-1062.8888	345.72302	977.21674	-958.92407	343.29257	973.11627	-916.6311	151.18054	973.91248	-813.66107	336.2796	985.74939	-933.75555	318.94385	1480.6724	-924.37817	162.65819	1432.0985	-924.99872	330.99011	1169.2524	-934.82281	298.71109	1467.4194	-1085.887	285.09665	1460.9281	-763.93182	220.28323	813.33582	-733.08875	187.65044	790.56842	-733.14117	234.98866	774.41199	-724.55737	189.76483	726.18481	-724.77185	260.19116	499.32553	-743.55243	235.43582	469.54141	-847.8468	319.15363	416.57358	-731.30609	295.39545	378.12787	-714.96588	342.54257	366.76068	-728.01422	308.6188	313.57413	-710.73486	251.59076	96.952522	-822.64209	282.04852	76.728477	-736.77039	331.19623	35.513023	-786.23645	111.25523	41.016315	-775.09308	155.15723	29.48259	-703.83051	128.7877	33.592571	-724.59979	207.33882	817.26642	-1143.8665	160.86974	781.54651	-1130.8457	207.94875	784.80334	-1149.4137	187.23677	721.66168	-1146.4841	255.26622	500.65726	-1124.7605	241.78015	482.91962	-1003.3052	306.06549	433.04419	-1137.006	339.30945	382.978	-1142.7545	289.13242	385.59238	-1154.5278	311.98016	323.82401	-1155.6879	287.94684	82.86795	-1132.2504	248.72496	100.30479	-1049.7314	328.38	33.224518	-1073.7152	172.47621	28.897646	-1181.8695	119.21608	45.825146	-1119.1803	130.74031	35.051109	-1159.9006	214.04263	1295.6108	-503.43759	272.28992	1394.0619	-489.55878	304.78101	1387.7472	-564.13373	323.31888	1380.5841	-623.12006	297.25192	1421.3524	-635.47571	226.77145	1363.0975	-232.73674	168.17987	1340.6235	-247.5061	157.86328	1350.4321	-152.98181	247.56195	1397.0092	-1607.9784	197.33905	1401.8574	-1592.8326	182.08789	1401.9277	-1697.9363	232.13483	1300.2471	-1358.0293	285.79559	1432.1349	-1284.2651	314.53714	1425.4729	-1209.9294	283.90424	1402.4603	-1363.2896	320.77451	1400.3885	-1266.8751
299	1.49	116.85522	1729.2628	-931.03278	286.0502	1696.2367	-852.73236	242.14468	1725.0874	-1005.9041	2013.7827	28.022535	-2007.8392	1903.4017	23.7428	212.65529	156.19188	969.82758	-1062.9082	345.72156	977.22406	-958.95508	343.28979	973.11658	-916.66156	151.17998	973.90857	-813.68945	336.27786	985.75208	-933.79065	318.8931	1480.6746	-924.35925	162.66054	1432.0911	-924.99304	330.98132	1169.251	-934.83398	298.71686	1467.438	-1085.8623	285.10489	1460.9072	-763.9353	220.27815	813.33331	-733.11108	187.65668	790.58405	-733.15894	234.96051	774.41046	-724.59503	189.75729	726.18298	-724.79376	260.18588	499.32208	-743.57391	235.43153	469.53644	-847.86475	319.14374	416.57675	-731.32611	295.39276	378.12997	-714.98615	342.33505	366.71118	-728.22485	308.61298	313.65564	-710.75085	251.75983	96.740776	-822.21259	282.04111	76.718307	-736.77966	331.19159	35.512489	-786.23212	111.25594	41.017567	-775.091	155.14943	29.488165	-703.83374	128.78015	33.591648	-724.59442	207.32988	817.26416	-1143.8885	160.85616	781.54761	-1130.8586	207.9433	784.82611	-1149.4438	187.23602	721.66455	-1146.5149	255.24431	500.65649	-1124.7723	241.78842	482.9165	-1003.3156	306.05411	433.04224	-1137.0282	339.30768	382.97177	-1142.7708	289.12347	385.59409	-1154.5457	311.96494	323.84818	-1155.724	287.94623	82.872444	-1132.2543	248.71381	100.31924	-1049.746	328.3811	33.227703	-1073.7206	172.48511	28.884844	-1181.8715	119.2147	45.821278	-1119.1809	130.73637	35.03384	-1159.8835	214.36931	1295.4722	-503.01462	272.3042	1394.0299	-489.56146	304.80154	1387.704	-564.13702	323.34219	1380.5552	-623.11853	297.26248	1421.3195	-635.47247	226.78461	1363.0746	-232.72911	168.18835	1340.6028	-247.50221	158.0674	1350.4041	-153.27176	247.63698	1397.1229	-1607.9492	197.41153	1401.9757	-1592.8292	182.19092	1402.0552	-1697.9388	232.20157	1300.2563	-1358.0594	285.81146	1432.178	-1284.2535	314.54193	1425.5087	-1209.9143	284.00882	1402.6703	-1363.2778	320.78638	1400.4352	-1266.8674
